<svg xmlns="http://www.w3.org/2000/svg" width="16" height="16" fill="none"><g clip-path="url(#a)"><path fill="#000" d="M4.719 15.7a3.527 3.527 0 0 1-.828-.768 9.977 9.977 0 0 1-.711-.969 9.439 9.439 0 0 1-1.188-2.424c-.333-1-.494-1.958-.494-2.896 0-1.047.226-1.961.669-2.729a3.84 3.84 0 0 1 1.399-1.453 3.725 3.725 0 0 1 1.893-.56c.234 0 .487.034.755.099.192.055.426.14.713.248.365.14.565.226.633.247.214.078.393.112.534.112.107 0 .258-.034.43-.086.096-.034.278-.094.539-.205.257-.094.46-.175.622-.235.247-.073.487-.14.7-.174.261-.04.518-.052.766-.032a4.53 4.53 0 0 1 1.294.279c.68.273 1.23.7 1.639 1.307a3.173 3.173 0 0 0-.485.367 4.076 4.076 0 0 0-.82 1.003 3.413 3.413 0 0 0-.43 1.679c.01.722.195 1.357.56 1.906.26.402.604.742 1.023 1.024.209.14.388.237.56.302a8.75 8.75 0 0 1-.268.732 9.589 9.589 0 0 1-.833 1.541c-.289.42-.515.732-.688.94-.268.318-.525.56-.786.73-.287.19-.625.291-.969.291a2.198 2.198 0 0 1-.69-.084 7.629 7.629 0 0 1-.57-.215 4.566 4.566 0 0 0-.602-.227 3.134 3.134 0 0 0-1.55-.002c-.208.06-.409.13-.607.216-.278.117-.463.195-.57.229a2.959 2.959 0 0 1-.659.114 1.82 1.82 0 0 1-.99-.3l.009-.007Zm4.57-12.307c-.453.227-.886.323-1.315.292-.067-.433 0-.875.18-1.36.159-.414.372-.786.666-1.12A3.548 3.548 0 0 1 9.906.367c.44-.227.86-.35 1.26-.367.053.453 0 .898-.166 1.38a3.99 3.99 0 0 1-.666 1.172 3.415 3.415 0 0 1-1.058.84l.013.001Z"/></g><defs><clipPath id="a"><path fill="#fff" d="M0 0h16v16H0z"/></clipPath></defs></svg>