<svg xmlns="http://www.w3.org/2000/svg" width="16" height="16" fill="none"><path fill="#0C5CD3" fill-rule="evenodd" d="M8 0c-.326 0-.634.131-1.251.394l-1.614.688-1.628.655c-.622.25-.933.376-1.164.606-.23.23-.355.542-.606 1.164l-.655 1.628-.688 1.614C.131 7.366 0 7.674 0 8c0 .326.131.634.394 1.251l.688 1.614.655 1.628c.25.622.376.933.606 1.164.23.23.542.355 1.164.606l1.628.655 1.614.688c.617.263.925.394 1.251.394.326 0 .634-.131 1.251-.394l1.614-.688 1.628-.655c.622-.25.933-.376 1.164-.606.23-.23.355-.542.606-1.164l.655-1.628.688-1.614C15.869 8.634 16 8.326 16 8c0-.326-.131-.634-.394-1.251l-.688-1.614-.655-1.628c-.25-.622-.376-.933-.606-1.164-.23-.23-.542-.355-1.164-.606l-1.628-.655L9.251.394C8.634.131 8.326 0 8 0Zm1.13 5.207c0 .33-.023.646-.065.939.151-.168.314-.34.487-.513 1.116-1.116 2.21-1.832 2.445-1.598.233.233-.482 1.328-1.6 2.445a13.34 13.34 0 0 1-.466.444 6.65 6.65 0 0 1 .862-.054c1.542 0 2.793.506 2.793 1.13 0 .624-1.25 1.13-2.793 1.13-.331 0-.649-.023-.943-.066.18.16.363.334.548.519 1.117 1.116 1.832 2.211 1.599 2.445-.234.233-1.329-.482-2.445-1.599a13.354 13.354 0 0 1-.477-.501c.036.272.055.563.055.865 0 1.542-.506 2.793-1.13 2.793-.624 0-1.13-1.25-1.13-2.793 0-.302.019-.593.055-.865a14.45 14.45 0 0 1-.477.501c-1.116 1.117-2.21 1.832-2.445 1.599-.233-.234.482-1.329 1.599-2.445.185-.185.369-.358.548-.519a6.595 6.595 0 0 1-.943.066c-1.542 0-2.792-.506-2.792-1.13 0-.624 1.25-1.13 2.792-1.13.3 0 .59.019.862.054-.154-.139-.31-.288-.467-.445C4.485 5.363 3.77 4.27 4.003 4.035c.234-.234 1.329.482 2.445 1.598.173.173.336.345.487.513a6.597 6.597 0 0 1-.065-.939c0-1.542.506-2.792 1.13-2.792.624 0 1.13 1.25 1.13 2.792Z" clip-rule="evenodd"/></svg>