<?xml version="1.0" encoding="UTF-8"?>
<svg version="1.1" xmlns="http://www.w3.org/2000/svg" width="67" height="68">
<path d="M0 0 C0.33 0.66 0.66 1.32 1 2 C4.02934491 2.65772428 4.02934491 2.65772428 7 3 C7.625 4.875 7.625 4.875 8 7 C7.34 7.66 6.68 8.32 6 9 C6.49371094 9.68707031 6.98742188 10.37414063 7.49609375 11.08203125 C8.13675781 11.98308594 8.77742188 12.88414063 9.4375 13.8125 C10.07558594 14.70582031 10.71367188 15.59914063 11.37109375 16.51953125 C14.60808277 21.44875914 14.47903082 26.28646879 14 32 C11.91939394 38.57033494 8.43872252 43.8265593 2.4375 47.375 C-3.48123517 50.0378714 -10.1784534 50.12065123 -16.37109375 48.3046875 C-22.34790319 45.61568817 -25.68953653 41.39498496 -28.8125 35.6875 C-30.99726519 28.90322916 -30.81904121 24.11338172 -27.625 17.6875 C-26.76109836 16.11883649 -25.88675797 14.55585717 -25 13 C-24.67 12.26910156 -24.34 11.53820312 -24 10.78515625 C-22.56402444 8.22171551 -20.71893274 7.85861034 -18 7 C-18.33 5.35 -18.66 3.7 -19 2 C-15.98968256 1.06576355 -15.13349732 0.95550089 -12 2 C-12 2.99 -12 3.98 -12 5 C-10.68 5 -9.36 5 -8 5 C-7.67 3.68 -7.34 2.36 -7 1 C-2.25 0 -2.25 0 0 0 Z M-17 2 C-16 4 -16 4 -16 4 Z M-16 5 C-15 7 -15 7 -15 7 Z M2 5 C3 7 3 7 3 7 Z " fill="#9ECBC2" transform="translate(42,9)"/>
<path d="M0 0 C0.99 0 1.98 0 3 0 C4.5703125 1.86328125 4.5703125 1.86328125 6.125 4.3125 C6.90230469 5.51326172 6.90230469 5.51326172 7.6953125 6.73828125 C10.54439498 11.67725955 10.46555167 16.44723829 10 22 C7.91939394 28.57033494 4.43872252 33.8265593 -1.5625 37.375 C-6.75896336 39.75505955 -12.40173178 39.71326084 -18 39 C-18.99 38.34 -19.98 37.68 -21 37 C-14.07 37.495 -14.07 37.495 -7 38 C-7 37.01 -7 36.02 -7 35 C-7.66 34.67 -8.32 34.34 -9 34 C-9 32.02 -9 30.04 -9 28 C-9.66 27.67 -10.32 27.34 -11 27 C-11.34700907 21.33218526 -10.52575819 17.95437183 -8 13 C-7.34 12.34 -6.68 11.68 -6 11 C-5.01 11 -4.02 11 -3 11 C-3 11.99 -3 12.98 -3 14 C-1.78918149 10.89459074 -1.78918149 10.89459074 -2 7 C-1.34 7.33 -0.68 7.66 0 8 C0.99 7.01 1.98 6.02 3 5 C1.68 4.67 0.36 4.34 -1 4 C-0.01 4 0.98 4 2 4 C1.16666667 1.83333333 1.16666667 1.83333333 -1 1 C-0.67 0.67 -0.34 0.34 0 0 Z " fill="#87C4D9" transform="translate(46,19)"/>
<path d="M0 0 C0.33 0.66 0.66 1.32 1 2 C4.02934491 2.65772428 4.02934491 2.65772428 7 3 C7.6875 4.75 7.6875 4.75 8 7 C6.5625 9.25 6.5625 9.25 5 11 C5.350625 11.598125 5.70125 12.19625 6.0625 12.8125 C7 15 7 15 6 18 C5.34 18 4.68 18 4 18 C2.8509288 19.9254644 2.8509288 19.9254644 3 22 C2.34 22.99 1.68 23.98 1 25 C0.01 24.67 -0.98 24.34 -2 24 C-1.01 23.01 -0.02 22.02 1 21 C-0.65 21.66 -2.3 22.32 -4 23 C-4.12375 22.0925 -4.2475 21.185 -4.375 20.25 C-4.92109677 17.41029677 -5.57263803 15.47409409 -7 13 C-7.33 13 -7.66 13 -8 13 C-8.33 11.35 -8.66 9.7 -9 8 C-11.31 8.33 -13.62 8.66 -16 9 C-17.5625 6.6875 -17.5625 6.6875 -19 4 C-18.67 3.01 -18.34 2.02 -18 1 C-16.35 1 -14.7 1 -13 1 C-12.67 2.32 -12.34 3.64 -12 5 C-10.68 5 -9.36 5 -8 5 C-7.67 3.68 -7.34 2.36 -7 1 C-2.25 0 -2.25 0 0 0 Z M-17 2 C-16 4 -16 4 -16 4 Z M-16 5 C-15 7 -15 7 -15 7 Z M2 5 C3 7 3 7 3 7 Z " fill="#ACCB9E" transform="translate(42,9)"/>
<path d="M0 0 C0.99 0.33 1.98 0.66 3 1 C3 2.32 3 3.64 3 5 C1.68 5 0.36 5 -1 5 C-5.71770938 9.97729626 -8.94800064 16.4834838 -9.02734375 23.375 C-8.62543319 30.13534166 -7.12433921 35.88258837 -2.23828125 40.7578125 C3.54921448 45.4651273 9.06119127 47.37262185 16.5 46.875 C22.73490482 45.93976428 27.31343352 43.64908723 31.8125 39.25 C35.80051709 33.32494604 38.22961006 27.27188743 37 20 C35.43243746 15.12804508 33.3190032 10.55443871 31 6 C34.7675126 7.63047814 36.48532873 9.45856501 38.23046875 13.26171875 C40.30959217 20.66002088 40.51446744 30.08664912 37.0625 37.0625 C33.48076135 42.40945083 28.12012853 46.95995716 22 49 C13.2689657 49.78291908 5.50380161 50.18639186 -1.94140625 44.92578125 C-7.35280591 39.86350415 -11.08973885 34.0197568 -11.3425293 26.59057617 C-11.45807883 18.92868643 -11.04910352 13.18692967 -6 7 C-5.47019531 6.49082031 -4.94039062 5.98164063 -4.39453125 5.45703125 C-2.74187479 3.93813611 -2.74187479 3.93813611 -2 1 C-1.34 0.67 -0.68 0.34 0 0 Z " fill="#6184A3" transform="translate(20,12)"/>
<path d="M0 0 C0.66 0.66 1.32 1.32 2 2 C1.34 2 0.68 2 0 2 C0 3.32 0 4.64 0 6 C-0.66 6 -1.32 6 -2 6 C-2.16788373 7.62487471 -2.33426787 9.24990442 -2.5 10.875 C-2.5928125 11.77992187 -2.685625 12.68484375 -2.78125 13.6171875 C-3.12360809 16.93825872 -3.12360809 16.93825872 -2 20 C-1 22 -1 22 -1 24 C1.61381519 26.71836779 2.91054943 26.99552747 6.75 27.1875 C8.35875 27.0946875 8.35875 27.0946875 10 27 C10.33 26.34 10.66 25.68 11 25 C9.35 25.33 7.7 25.66 6 26 C7.1875 24.5 7.1875 24.5 9 23 C11.6875 22.8125 11.6875 22.8125 14 23 C14.25 26.3125 14.25 26.3125 14 30 C11.49153809 32.69427391 8.42728137 33.76237062 5 35 C-1.38472024 30.42667511 -4.96149935 25.58439029 -6.4140625 17.7734375 C-6.84573168 11.34383869 -4.27067116 6.40465005 -1 1 C-0.67 0.67 -0.34 0.34 0 0 Z " fill="#CFEBF4" transform="translate(18,21)"/>
<path d="M0 0 C0.99 0.99 1.98 1.98 3 3 C3.66 2.67 4.32 2.34 5 2 C4.01 6.62 3.02 11.24 2 16 C2.99 16.33 3.98 16.66 5 17 C4.979375 17.9075 4.95875 18.815 4.9375 19.75 C4.98951889 22.45498249 5.29177628 24.43478023 6 27 C-4.55808656 27.3690205 -4.55808656 27.3690205 -9 25 C-8.401875 24.71125 -7.80375 24.4225 -7.1875 24.125 C-4.80672208 22.95257974 -4.80672208 22.95257974 -2 21 C-1.74984127 17.41642759 -1.74984127 17.41642759 -2 14 C-3.98 13.01 -5.96 12.02 -8 11 C-7.34 10.67 -6.68 10.34 -6 10 C-3.375 10.9375 -3.375 10.9375 -1 12 C0.26237731 9.47524538 0.09856404 7.68799534 0.0625 4.875 C0.05347656 3.96492188 0.04445313 3.05484375 0.03515625 2.1171875 C0.02355469 1.41851563 0.01195312 0.71984375 0 0 Z " fill="#154F7E" transform="translate(33,30)"/>
<path d="M0 0 C3.465 1.485 3.465 1.485 7 3 C7 3.99 7 4.98 7 6 C5.68 6.33 4.36 6.66 3 7 C3.33 8.65 3.66 10.3 4 12 C5.98 11.34 7.96 10.68 10 10 C9.10845646 12.74892592 8.25590275 14.71566361 6.3125 16.875 C2.93232378 18.51941006 0.58115477 17.86212985 -3 17 C-5 15 -5 15 -5.125 12.375 C-5.08375 11.59125 -5.0425 10.8075 -5 10 C-3.68 10 -2.36 10 -1 10 C-0.67 6.7 -0.34 3.4 0 0 Z " fill="#CFEBF5" transform="translate(44,35)"/>
<path d="M0 0 C1.32 0 2.64 0 4 0 C5.125 1.6875 5.125 1.6875 6 4 C5.125 6.75 5.125 6.75 4 9 C2.68 9 1.36 9 0 9 C0.66 10.98 1.32 12.96 2 15 C4.31 15.33 6.62 15.66 9 16 C9 16.66 9 17.32 9 18 C2.40188345 22.06037942 -3.27590141 22.98410738 -11 22 C-11.99 21.34 -12.98 20.68 -14 20 C-7.07 20.495 -7.07 20.495 0 21 C0 20.01 0 19.02 0 18 C-0.66 17.67 -1.32 17.34 -2 17 C-2 15.02 -2 13.04 -2 11 C-2.66 10.67 -3.32 10.34 -4 10 C-4 9.34 -4 8.68 -4 8 C-3.01 7.67 -2.02 7.34 -1 7 C-1.20625 6.21625 -1.4125 5.4325 -1.625 4.625 C-1.74875 3.75875 -1.8725 2.8925 -2 2 C-1.34 1.34 -0.68 0.68 0 0 Z " fill="#57B6E2" transform="translate(39,36)"/>
<path d="M0 0 C4.02238501 2.06554906 6.19096176 3.81064829 8 8 C8.3804212 12.41288598 8.48386059 14.27420911 6 18 C1.15544041 16.41450777 1.15544041 16.41450777 -1 15 C-1.9375 11.8125 -1.9375 11.8125 -2 9 C-1.34 9 -0.68 9 0 9 C0 8.34 0 7.68 0 7 C0.66 7 1.32 7 2 7 C1.34 6.34 0.68 5.68 0 5 C-0.99 5.33 -1.98 5.66 -3 6 C-2.67 4.68 -2.34 3.36 -2 2 C-1.34 2 -0.68 2 0 2 C0 1.34 0 0.68 0 0 Z " fill="#B8CCAE" transform="translate(26,25)"/>
<path d="M0 0 C0.103125 0.7425 0.20625 1.485 0.3125 2.25 C0.79621138 5.03170045 0.79621138 5.03170045 2.5625 6.875 C4.66271365 9.97966365 4.40566842 12.34898425 4 16 C3.01 16.66 2.02 17.32 1 18 C0.54625 17.05125 0.0925 16.1025 -0.375 15.125 C-1.80238254 11.99686321 -1.80238254 11.99686321 -4 10 C-4.39764263 8.01178687 -4.73775349 6.01055661 -5 4 C-6.98 4.99 -6.98 4.99 -9 6 C-9 5.34 -9 4.68 -9 4 C-10.98 4.33 -12.96 4.66 -15 5 C-15 4.01 -15 3.02 -15 2 C-11.5 1.5 -11.5 1.5 -8 1 C-6.72125 0.814375 -5.4425 0.62875 -4.125 0.4375 C-1 0 -1 0 0 0 Z " fill="#B5C89F" transform="translate(34,16)"/>
<path d="M0 0 C1.65 0 3.3 0 5 0 C5.061875 0.928125 5.061875 0.928125 5.125 1.875 C5.41375 2.57625 5.7025 3.2775 6 4 C8.99615946 5.3045656 8.99615946 5.3045656 12 6 C12.33 7.65 12.66 9.3 13 11 C13.99 11 14.98 11 16 11 C16.68707555 13.49064888 17 15.37886292 17 18 C17.66 17.67 18.32 17.34 19 17 C19.66 18.32 20.32 19.64 21 21 C20.34 21.99 19.68 22.98 19 24 C18.01 23.67 17.02 23.34 16 23 C16.99 22.01 17.98 21.02 19 20 C17.35 20.66 15.7 21.32 14 22 C13.87625 21.0925 13.7525 20.185 13.625 19.25 C13.07890323 16.41029677 12.42736197 14.47409409 11 12 C10.67 12 10.34 12 10 12 C9.67 10.35 9.34 8.7 9 7 C6.69 7.33 4.38 7.66 2 8 C0.4375 5.6875 0.4375 5.6875 -1 3 C-0.67 2.01 -0.34 1.02 0 0 Z M1 1 C2 3 2 3 2 3 Z M2 4 C3 6 3 6 3 6 Z " fill="#B7D7B3" transform="translate(24,10)"/>
<path d="M0 0 C0.99 0.33 1.98 0.66 3 1 C3 2.32 3 3.64 3 5 C1.68 5 0.36 5 -1 5 C-5.71770938 9.97729626 -8.94800064 16.4834838 -9.02734375 23.375 C-8.50998958 32.07716244 -5.47495549 38.24448401 1 44 C-2.1866568 43.69108939 -3.60496805 43.44659585 -5.765625 41.00390625 C-6.25546875 40.19824219 -6.7453125 39.39257812 -7.25 38.5625 C-7.75015625 37.75941406 -8.2503125 36.95632812 -8.765625 36.12890625 C-12.21390257 30.18171866 -11.82828538 22.74099462 -11 16 C-9.56511666 11.81169187 -7.58641598 8.52465769 -4.39453125 5.45703125 C-2.74187479 3.93813611 -2.74187479 3.93813611 -2 1 C-1.34 0.67 -0.68 0.34 0 0 Z " fill="#98ACC0" transform="translate(20,12)"/>
<path d="M0 0 C2.3704344 2.3704344 2.94393744 4.01230955 3.1328125 7.33984375 C3.13023438 8.19707031 3.12765625 9.05429687 3.125 9.9375 C3.12757812 10.79214844 3.13015625 11.64679687 3.1328125 12.52734375 C3.00776278 14.85547534 2.76143291 16.79867794 2 19 C-0.58152302 20.72101535 -1.84918025 21 -5 21 C-5.33 19.35 -5.66 17.7 -6 16 C-4.68 15.67 -3.36 15.34 -2 15 C-2.185625 14.21625 -2.37125 13.4325 -2.5625 12.625 C-3 10 -3 10 -2 8 C-1.34 8 -0.68 8 0 8 C-0.33 7.01 -0.66 6.02 -1 5 C-0.5625 2.3125 -0.5625 2.3125 0 0 Z " fill="#B0E2F6" transform="translate(53,26)"/>
<path d="M0 0 C0.763125 0.66 1.52625 1.32 2.3125 2 C4.84277939 4.29850538 4.84277939 4.29850538 8 4 C11.84637807 4.96159452 14.6864548 5.79096986 18 8 C17.01 8.495 17.01 8.495 16 9 C16 9.99 16 10.98 16 12 C15 13 15 13 11.8125 13.375 C6.8045424 12.88241401 5.42689577 11.59406141 2 8 C2 7.01 2 6.02 2 5 C1.37400383 3.31763529 0.71247732 1.6476038 0 0 Z " fill="#A0DAF2" transform="translate(13,36)"/>
<path d="M0 0 C0 0.99 0 1.98 0 3 C-6.76484076 8.4118726 -14.76677617 7.88456124 -23 7 C-25.93483211 5.97457673 -27.55496832 4.95602534 -30 3 C-26.4821704 1.82739013 -25.74500202 2.25898338 -22.375 3.5 C-15.36773181 5.71014128 -10.01196321 5.17273673 -3.4375 1.9375 C-2.303125 1.298125 -1.16875 0.65875 0 0 Z " fill="#2A5C88" transform="translate(49,54)"/>
<path d="M0 0 C3.54293666 1.86470351 5.77228817 3.09364418 7 7 C7.125 10.25 7.125 10.25 7 13 C1.125 8.375 1.125 8.375 0 5 C-0.99 5.33 -1.98 5.66 -3 6 C-2.67 4.68 -2.34 3.36 -2 2 C-1.34 2 -0.68 2 0 2 C0 1.34 0 0.68 0 0 Z " fill="#F5F3A3" transform="translate(26,25)"/>
<path d="M0 0 C0.99 0.99 1.98 1.98 3 3 C3.66 2.67 4.32 2.34 5 2 C4.690625 2.928125 4.38125 3.85625 4.0625 4.8125 C2.6216844 9.77871546 2.35305964 14.86205306 2 20 C1.34 20 0.68 20 0 20 C-0.20625 19.071875 -0.4125 18.14375 -0.625 17.1875 C-1.74446192 13.73995905 -1.74446192 13.73995905 -5.125 12.125 C-6.07375 11.75375 -7.0225 11.3825 -8 11 C-7.34 10.67 -6.68 10.34 -6 10 C-3.375 10.9375 -3.375 10.9375 -1 12 C0.26237731 9.47524538 0.09856404 7.68799534 0.0625 4.875 C0.05347656 3.96492188 0.04445313 3.05484375 0.03515625 2.1171875 C0.02355469 1.41851563 0.01195312 0.71984375 0 0 Z " fill="#1E4665" transform="translate(33,30)"/>
<path d="M0 0 C0.66 0.33 1.32 0.66 2 1 C2 1.66 2 2.32 2 3 C2.99 3 3.98 3 5 3 C5.68707555 5.49064888 6 7.37886292 6 10 C6.66 9.67 7.32 9.34 8 9 C8.66 10.32 9.32 11.64 10 13 C9.01 14.485 9.01 14.485 8 16 C7.01 15.67 6.02 15.34 5 15 C5.99 14.01 6.98 13.02 8 12 C6.35 12.66 4.7 13.32 3 14 C2.814375 12.63875 2.814375 12.63875 2.625 11.25 C2.07375879 8.38354573 1.42706403 6.49736205 0 4 C-0.33 3.34 -0.66 2.68 -1 2 C-0.67 1.34 -0.34 0.68 0 0 Z " fill="#729E99" transform="translate(35,18)"/>
<path d="M0 0 C0.99 0 1.98 0 3 0 C4.32 2.31 5.64 4.62 7 7 C6.34 7 5.68 7 5 7 C5 8.65 5 10.3 5 12 C2.69 11.67 0.38 11.34 -2 11 C-2 9.68 -2 8.36 -2 7 C-1.34 7.33 -0.68 7.66 0 8 C0.99 7.01 1.98 6.02 3 5 C1.68 4.67 0.36 4.34 -1 4 C-0.01 4 0.98 4 2 4 C1.16666667 1.83333333 1.16666667 1.83333333 -1 1 C-0.67 0.67 -0.34 0.34 0 0 Z " fill="#A4D1DE" transform="translate(46,19)"/>
<path d="M0 0 C1.32 0.33 2.64 0.66 4 1 C4.33 2.32 4.66 3.64 5 5 C5.99 4.67 6.98 4.34 8 4 C8.33 4.99 8.66 5.98 9 7 C8.34 7 7.68 7 7 7 C7 7.66 7 8.32 7 9 C6.34 9 5.68 9 5 9 C5.33 10.98 5.66 12.96 6 15 C5.01 14.34 4.02 13.68 3 13 C2.8125 9.375 2.8125 9.375 3 6 C2.01 5.67 1.02 5.34 0 5 C0 3.33333333 0 1.66666667 0 0 Z " fill="#6FB2AD" transform="translate(19,25)"/>
<path d="M0 0 C0.33 0 0.66 0 1 0 C1.14695312 0.845625 1.29390625 1.69125 1.4453125 2.5625 C3.17543654 11.3125526 5.74168703 16.74168703 12 23 C8.8133432 22.69108939 7.39503195 22.44659585 5.234375 20.00390625 C4.74453125 19.19824219 4.2546875 18.39257812 3.75 17.5625 C2.99976563 16.35787109 2.99976563 16.35787109 2.234375 15.12890625 C0.1618846 11.55451616 -0.11080416 9.52915781 -0.0625 5.375 C-0.05347656 4.37210938 -0.04445313 3.36921875 -0.03515625 2.3359375 C-0.02355469 1.56507812 -0.01195312 0.79421875 0 0 Z " fill="#7090AD" transform="translate(9,33)"/>
<path d="M0 0 C0.103125 1.0725 0.20625 2.145 0.3125 3.25 C0.97400493 6.85820872 1.57483421 8.36395023 4 11 C3.34 11.66 2.68 12.32 2 13 C1.566875 12.175 1.13375 11.35 0.6875 10.5 C0.130625 9.675 -0.42625 8.85 -1 8 C-1.99 8 -2.98 8 -4 8 C-4.66 8 -5.32 8 -6 8 C-6.66 6.68 -7.32 5.36 -8 4 C-1.125 0 -1.125 0 0 0 Z " fill="#649C8B" transform="translate(30,19)"/>
<path d="M0 0 C0.33 0 0.66 0 1 0 C1.25 3.3125 1.25 3.3125 1 7 C-1.50846191 9.69427391 -4.57271863 10.76237062 -8 12 C-9.7074998 10.71937515 -11.37373596 9.38232443 -13 8 C-13 7.34 -13 6.68 -13 6 C-10.02148438 6.390625 -10.02148438 6.390625 -7.04296875 6.78125 C-4.84528294 7.053233 -4.84528294 7.053233 -2 7 C-1.34 4.69 -0.68 2.38 0 0 Z " fill="#77ABCA" transform="translate(31,44)"/>
<path d="M0 0 C0.99 0 1.98 0 3 0 C3.103125 1.0725 3.20625 2.145 3.3125 3.25 C3.97400493 6.85820872 4.57483421 8.36395023 7 11 C6.236875 10.835 5.47375 10.67 4.6875 10.5 C1.96403764 9.90854604 1.96403764 9.90854604 -1 10 C-2.6875 8.625 -2.6875 8.625 -4 7 C-4 6.34 -4 5.68 -4 5 C-2.68 5 -1.36 5 0 5 C0 3.35 0 1.7 0 0 Z " fill="#C0D8A7" transform="translate(19,31)"/>
<path d="M0 0 C0.99 0 1.98 0 3 0 C3.6875 1.75 3.6875 1.75 4 4 C3.01971384 5.34789347 2.02028865 6.68212715 1 8 C1.33 8.99 1.66 9.98 2 11 C1.01 11 0.02 11 -1 11 C-1 11.66 -1 12.32 -1 13 C-1.66 13 -2.32 13 -3 13 C-2.67 11.68 -2.34 10.36 -2 9 C-2.99 8.67 -3.98 8.34 -5 8 C-4.0409375 7.690625 -4.0409375 7.690625 -3.0625 7.375 C-0.65074923 6.10461791 -0.65074923 6.10461791 -0.25 2.875 C-0.1675 1.92625 -0.085 0.9775 0 0 Z " fill="#4D96BA" transform="translate(46,12)"/>
<path d="M0 0 C0.33 1.32 0.66 2.64 1 4 C0.2575 3.95875 -0.485 3.9175 -1.25 3.875 C-4.08758952 4.00398134 -5.58773938 4.57051222 -8 6 C-8 5.34 -8 4.68 -8 4 C-9.98 4.33 -11.96 4.66 -14 5 C-14 4.01 -14 3.02 -14 2 C-7 1 -7 1 0 0 Z " fill="#BDDDD0" transform="translate(33,16)"/>
<path d="M0 0 C0.66 0.66 1.32 1.32 2 2 C1.34 2 0.68 2 0 2 C0 3.32 0 4.64 0 6 C-0.66 6 -1.32 6 -2 6 C-2.05607422 7.01320313 -2.05607422 7.01320313 -2.11328125 8.046875 C-2.21189453 9.38492187 -2.21189453 9.38492187 -2.3125 10.75 C-2.37050781 11.63171875 -2.42851562 12.5134375 -2.48828125 13.421875 C-3.0641181 16.32303774 -4.07596148 17.79225607 -6 20 C-6.6171519 12.34731642 -4.96147713 7.54617859 -1 1 C-0.67 0.67 -0.34 0.34 0 0 Z " fill="#D9ECF3" transform="translate(18,21)"/>
<path d="M0 0 C2 2 2 2 2.1953125 4.8203125 C2.16050781 6.45613281 2.16050781 6.45613281 2.125 8.125 C2.10695313 9.22070312 2.08890625 10.31640625 2.0703125 11.4453125 C2.04710937 12.28835937 2.02390625 13.13140625 2 14 C-0.475 13.01 -0.475 13.01 -3 12 C-2.67 10.68 -2.34 9.36 -2 8 C-1.34 8 -0.68 8 0 8 C-0.33 7.01 -0.66 6.02 -1 5 C-0.5625 2.3125 -0.5625 2.3125 0 0 Z " fill="#7DCDEC" transform="translate(53,26)"/>
<path d="M0 0 C0.33 0.66 0.66 1.32 1 2 C1.66 2 2.32 2 3 2 C2.67 3.65 2.34 5.3 2 7 C-2.455 6.01 -2.455 6.01 -7 5 C-7 3.68 -7 2.36 -7 1 C-2.25 0 -2.25 0 0 0 Z " fill="#5C81A2" transform="translate(42,9)"/>
<path d="M0 0 C2.00720923 0.28674418 4.0085944 0.61866701 6 1 C4.25 4.875 4.25 4.875 2 6 C0.02362586 6.12227926 -1.9573831 6.17549929 -3.9375 6.1875 C-4.99839844 6.20167969 -6.05929688 6.21585938 -7.15234375 6.23046875 C-10 6 -10 6 -13 4 C-6.07 4.495 -6.07 4.495 1 5 C1 4.01 1 3.02 1 2 C0.34 1.67 -0.32 1.34 -1 1 C-0.67 0.67 -0.34 0.34 0 0 Z " fill="#6691B0" transform="translate(38,52)"/>
<path d="M0 0 C0.66 0 1.32 0 2 0 C2 2.64 2 5.28 2 8 C1.34 8 0.68 8 0 8 C-0.33 8.66 -0.66 9.32 -1 10 C-1.66 9.67 -2.32 9.34 -3 9 C-3 8.34 -3 7.68 -3 7 C-3.66 7 -4.32 7 -5 7 C-5 6.34 -5 5.68 -5 5 C-3.68 4.67 -2.36 4.34 -1 4 C-0.67 2.68 -0.34 1.36 0 0 Z " fill="#6BA6B8" transform="translate(51,26)"/>
<path d="M0 0 C2.93200474 2.85276137 5.64315404 5.65079784 8 9 C7.67 9.33 7.34 9.66 7 10 C8.98 10.66 10.96 11.32 13 12 C13 12.33 13 12.66 13 13 C6.63265306 12.63265306 6.63265306 12.63265306 3.5625 9.5625 C2 7 2 7 2 5 C1.36096883 3.32254318 0.69658363 1.65438613 0 0 Z " fill="#54AAD8" transform="translate(13,36)"/>
<path d="M0 0 C0.33 0 0.66 0 1 0 C1 1.65 1 3.3 1 5 C1.66 5 2.32 5 3 5 C3 3.68 3 2.36 3 1 C3.99 1.33 4.98 1.66 6 2 C5.979375 2.94875 5.95875 3.8975 5.9375 4.875 C5.77448174 7.90666283 5.77448174 7.90666283 7 10 C5.0625 9.6875 5.0625 9.6875 3 9 C2.67 8.01 2.34 7.02 2 6 C1.34 6 0.68 6 0 6 C0 4.02 0 2.04 0 0 Z " fill="#1B6A9F" transform="translate(32,45)"/>
<path d="M0 0 C0.66 0.33 1.32 0.66 2 1 C1.67 1.66 1.34 2.32 1 3 C1.66 3 2.32 3 3 3 C3 3.66 3 4.32 3 5 C3.66 5 4.32 5 5 5 C5 5.99 5 6.98 5 8 C2.525 7.01 2.525 7.01 0 6 C-0.66 6.66 -1.32 7.32 -2 8 C-2 7.01 -2 6.02 -2 5 C-2.66 4.67 -3.32 4.34 -4 4 C-2.68 2.68 -1.36 1.36 0 0 Z " fill="#93C4A9" transform="translate(45,30)"/>
<path d="M0 0 C1.32 0 2.64 0 4 0 C5.125 1.6875 5.125 1.6875 6 4 C5.125 6.75 5.125 6.75 4 9 C2 6 2 6 2 4 C1.01 3.67 0.02 3.34 -1 3 C-0.67 2.01 -0.34 1.02 0 0 Z " fill="#0C6FAF" transform="translate(39,36)"/>
<path d="M0 0 C1.258125 -0.04125 2.51625 -0.0825 3.8125 -0.125 C4.52019531 -0.14820313 5.22789063 -0.17140625 5.95703125 -0.1953125 C8 0 8 0 11 2 C10.67 3.32 10.34 4.64 10 6 C7.525 5.01 7.525 5.01 5 4 C5 3.34 5 2.68 5 2 C4.01 2.33 3.02 2.66 2 3 C1.34 2.01 0.68 1.02 0 0 Z " fill="#CFE4E5" transform="translate(34,14)"/>
<path d="M0 0 C1.32 0.33 2.64 0.66 4 1 C4 2.32 4 3.64 4 5 C6.31 5.33 8.62 5.66 11 6 C10.34 6.66 9.68 7.32 9 8 C2.53846154 7.53846154 2.53846154 7.53846154 0 5 C-0.125 2.375 -0.125 2.375 0 0 Z " fill="#ECF8FA" transform="translate(39,45)"/>
<path d="M0 0 C1.9375 0.6875 1.9375 0.6875 4 2 C4.75 4.625 4.75 4.625 5 7 C2.69 7.33 0.38 7.66 -2 8 C-2 7.34 -2 6.68 -2 6 C-1.01 5.67 -0.02 5.34 1 5 C0.67 3.35 0.34 1.7 0 0 Z " fill="#3097CF" transform="translate(37,38)"/>
<path d="M0 0 C3.35552151 1.37335691 4.75106712 2.63934426 6.375 5.875 C6.73335937 6.55304687 7.09171875 7.23109375 7.4609375 7.9296875 C8 10 8 10 7.1015625 12.2578125 C6.73804688 12.83273438 6.37453125 13.40765625 6 14 C5.73445313 13.32453125 5.46890625 12.6490625 5.1953125 11.953125 C4.84210937 11.06109375 4.48890625 10.1690625 4.125 9.25 C3.77695312 8.36828125 3.42890625 7.4865625 3.0703125 6.578125 C2.1353291 4.3259752 1.12219206 2.16350541 0 0 Z " fill="#B9C6D3" transform="translate(51,18)"/>
<path d="M0 0 C0 3 0 3 -2 6 C-5.625 6.1875 -5.625 6.1875 -9 6 C-8.4375 4.125 -8.4375 4.125 -7 2 C-3.375 0.75 -3.375 0.75 0 0 Z " fill="#C1E7F3" transform="translate(53,45)"/>
<path d="M0 0 C1.2065625 0.0309375 1.2065625 0.0309375 2.4375 0.0625 C2.7675 1.3825 3.0975 2.7025 3.4375 4.0625 C1.4575 4.7225 -0.5225 5.3825 -2.5625 6.0625 C-2.94468767 4.40635343 -3.27645102 2.73792976 -3.5625 1.0625 C-2.5625 0.0625 -2.5625 0.0625 0 0 Z M-1.5625 1.0625 C-0.5625 3.0625 -0.5625 3.0625 -0.5625 3.0625 Z " fill="#567C9D" transform="translate(26.5625,9.9375)"/>
<path d="M0 0 C2.5 1.3125 2.5 1.3125 5 3 C5 3.99 5 4.98 5 6 C4.236875 5.814375 3.47375 5.62875 2.6875 5.4375 C-0.08967375 4.77180827 -0.08967375 4.77180827 -3 6 C-2.67 4.68 -2.34 3.36 -2 2 C-1.34 2 -0.68 2 0 2 C0 1.34 0 0.68 0 0 Z " fill="#C0CCA0" transform="translate(26,25)"/>
<path d="M0 0 C2 1.8125 2 1.8125 4 4 C4 4.99 4 5.98 4 7 C4.33 7.99 4.66 8.98 5 10 C4.01 10 3.02 10 2 10 C-0.09350689 6.5980513 -0.17942163 3.94727588 0 0 Z " fill="#A9E0F6" transform="translate(13,38)"/>
<path d="M0 0 C0.78375 0.185625 1.5675 0.37125 2.375 0.5625 C4.97089775 1.25962266 4.97089775 1.25962266 7 0 C6.67 1.32 6.34 2.64 6 4 C4.35 4.33 2.7 4.66 1 5 C0.67 3.35 0.34 1.7 0 0 Z " fill="#94D6F1" transform="translate(47,42)"/>
<path d="M0 0 C2.31 0.33 4.62 0.66 7 1 C6.67 2.32 6.34 3.64 6 5 C3.03 4.505 3.03 4.505 0 4 C0 2.68 0 1.36 0 0 Z " fill="#ABD0C7" transform="translate(44,26)"/>
<path d="M0 0 C0 0.66 0 1.32 0 2 C-0.66 2.66 -1.32 3.32 -2 4 C-2 4.99 -2 5.98 -2 7 C-4.475 6.01 -4.475 6.01 -7 5 C-6.67 3.68 -6.34 2.36 -6 1 C-3.92446352 0.4465236 -2.15634036 0 0 0 Z " fill="#96BE87" transform="translate(25,20)"/>
<path d="M0 0 C5.06562383 -0.25328119 9.15758367 0.66416101 14 2 C14 2.33 14 2.66 14 3 C4.58997722 3.3690205 4.58997722 3.3690205 0 1 C0 0.67 0 0.34 0 0 Z " fill="#0B3464" transform="translate(24,54)"/>
<path d="M0 0 C1.0209375 0.433125 1.0209375 0.433125 2.0625 0.875 C5.32893093 2.12597355 8.62846123 3.07447955 12 4 C12 4.33 12 4.66 12 5 C4.73846154 5.49230769 4.73846154 5.49230769 1 3 C0.34 2.34 -0.32 1.68 -1 1 C-0.67 0.67 -0.34 0.34 0 0 Z " fill="#67AFCE" transform="translate(19,39)"/>
<path d="M0 0 C0.66 0.33 1.32 0.66 2 1 C1.67 2.98 1.34 4.96 1 7 C-0.65 6.01 -2.3 5.02 -4 4 C-2.68 2.68 -1.36 1.36 0 0 Z " fill="#68A3A2" transform="translate(18,31)"/>
<path d="M0 0 C0 0.99 0 1.98 0 3 C-5.2734375 6.22265625 -5.2734375 6.22265625 -7 7 C-7.66 6.67 -8.32 6.34 -9 6 C-7.71502463 3.43004926 -6.50087627 3.09565537 -3.9375 1.875 C-3.20402344 1.52179687 -2.47054687 1.16859375 -1.71484375 0.8046875 C-1.14894531 0.53914063 -0.58304688 0.27359375 0 0 Z " fill="#3C6991" transform="translate(49,54)"/>
<path d="M0 0 C2 1 2 1 3 2 C3.04063832 3.66617115 3.042721 5.33388095 3 7 C2.01 7 1.02 7 0 7 C-1.125 2.25 -1.125 2.25 0 0 Z " fill="#F1EE74" transform="translate(35,23)"/>
<path d="M0 0 C0.33 1.32 0.66 2.64 1 4 C-1.64 4 -4.28 4 -7 4 C-7 3.34 -7 2.68 -7 2 C-4.69 1.34 -2.38 0.68 0 0 Z " fill="#91C5D6" transform="translate(33,16)"/>
<path d="M0 0 C0.99 0 1.98 0 3 0 C3.33 1.32 3.66 2.64 4 4 C2.35 4.33 0.7 4.66 -1 5 C-0.67 3.35 -0.34 1.7 0 0 Z " fill="#487196" transform="translate(46,12)"/>
<path d="M0 0 C2.97 0.99 5.94 1.98 9 3 C7.68 3.99 6.36 4.98 5 6 C5 5.34 5 4.68 5 4 C2.525 3.01 2.525 3.01 0 2 C0 1.34 0 0.68 0 0 Z " fill="#AFE2F3" transform="translate(18,41)"/>
<path d="M0 0 C0.66 0.66 1.32 1.32 2 2 C1.34 2 0.68 2 0 2 C0 3.32 0 4.64 0 6 C-1.98 6.99 -1.98 6.99 -4 8 C-2.25 2.25 -2.25 2.25 0 0 Z " fill="#ECF4F4" transform="translate(18,21)"/>
<path d="M0 0 C1.32 0.33 2.64 0.66 4 1 C4 2.32 4 3.64 4 5 C3.01 5 2.02 5 1 5 C0.67 3.35 0.34 1.7 0 0 Z " fill="#5980A2" transform="translate(30,9)"/>
</svg>
