<svg xmlns="http://www.w3.org/2000/svg" width="14" height="14" fill="none"><path d="M 4.785 8.286 L 8.285 4.786 C 8.542 4.53 8.958 4.53 9.215 4.786 C 9.472 5.043 9.472 5.459 9.215 5.716 L 5.715 9.216 C 5.458 9.473 5.042 9.473 4.785 9.216 C 4.528 8.959 4.528 8.543 4.785 8.286 Z M 11.949 2.052 C 10.667 0.772 8.59 0.772 7.308 2.052 L 5.661 3.697 C 5.404 3.954 5.404 4.37 5.661 4.627 C 5.917 4.884 6.334 4.884 6.59 4.627 L 8.235 2.983 C 9.004 2.214 10.251 2.214 11.02 2.983 C 11.789 3.752 11.789 4.999 11.02 5.768 L 9.373 7.411 C 9.117 7.668 9.117 8.084 9.373 8.341 C 9.63 8.598 10.046 8.598 10.303 8.341 L 11.948 6.697 C 13.228 5.414 13.228 3.336 11.946 2.054 Z M 7.411 9.373 L 5.767 11.018 C 4.998 11.787 3.751 11.787 2.982 11.018 C 2.213 10.249 2.213 9.002 2.982 8.233 L 4.626 6.589 C 4.883 6.332 4.883 5.916 4.626 5.659 C 4.369 5.402 3.953 5.402 3.696 5.659 L 2.054 7.305 C 0.772 8.587 0.772 10.665 2.054 11.947 C 3.336 13.228 5.414 13.228 6.695 11.946 L 8.339 10.302 C 8.596 10.045 8.596 9.629 8.339 9.372 C 8.083 9.116 7.666 9.116 7.41 9.372 Z" fill="rgb(0,0,0)"></path></svg>