<svg xmlns="http://www.w3.org/2000/svg" width="13" height="16" fill="none"><g fill="#5F8E3E" clip-path="url(#a)"><path d="M8.868 1.902s-.166.051-.439.141a3.944 3.944 0 0 0-.213-.565c-.31-.643-.772-.99-1.318-.99-.036 0-.072 0-.119.013-.012-.025-.036-.038-.047-.064a1.086 1.086 0 0 0-.915-.398c-.712.025-1.424.578-1.994 1.567-.404.694-.712 1.568-.796 2.25-.819.27-1.389.462-1.4.475-.416.141-.428.154-.475.578C1.08 5.231 0 14.291 0 14.291l8.975 1.683V1.876c-.047.013-.083.013-.107.026Zm-2.077.694c-.475.154-.997.334-1.508.501.143-.604.427-1.208.76-1.606a1.93 1.93 0 0 1 .51-.411c.202.462.25 1.092.238 1.516ZM5.829.553c.166 0 .309.038.428.115-.19.103-.38.27-.558.463-.452.527-.796 1.35-.938 2.133l-1.247.412C3.764 2.455 4.725.59 5.83.553ZM4.44 7.62c.048.822 2.054 1.002 2.173 2.943.083 1.53-.748 2.57-1.947 2.647-1.449.103-2.244-.822-2.244-.822l.309-1.414s.795.656 1.436.604c.416-.026.57-.398.558-.655-.06-1.08-1.698-1.016-1.804-2.789-.095-1.478.807-2.982 2.801-3.123.772-.051 1.164.154 1.164.154l-.451 1.85s-.51-.256-1.116-.205c-.879.065-.89.669-.879.81Zm2.826-5.18c0-.385-.048-.937-.214-1.4.546.116.807.771.926 1.17-.214.064-.451.14-.712.23Zm2.006 13.483L13 14.92S11.397 3.187 11.385 3.11c-.011-.077-.07-.128-.13-.128s-1.104-.026-1.104-.026-.641-.668-.879-.925v13.892Z"/></g><defs><clipPath id="a"><path fill="#fff" d="M0 0h13v16H0z"/></clipPath></defs></svg>